<svg xmlns="http://www.w3.org/2000/svg" xmlns:xlink="http://www.w3.org/1999/xlink" width="50" zoomAndPan="magnify" viewBox="0 0 37.5 30.000001" height="40" preserveAspectRatio="xMidYMid meet" version="1.0"><path fill="#ffffff" d="M 18.507812 28.125 C 11.003906 28.125 4.898438 22.019531 4.898438 14.515625 C 4.898438 7.011719 11.003906 0.90625 18.507812 0.90625 C 26.011719 0.90625 32.117188 7.011719 32.117188 14.515625 C 32.117188 22.019531 26.011719 28.125 18.507812 28.125 Z M 18.507812 2.722656 C 12.003906 2.722656 6.714844 8.011719 6.714844 14.515625 C 6.714844 21.019531 12.003906 26.308594 18.507812 26.308594 C 25.011719 26.308594 30.300781 21.019531 30.300781 14.515625 C 30.300781 8.011719 25.011719 2.722656 18.507812 2.722656 Z M 18.507812 2.722656 " fill-opacity="1" fill-rule="nonzero"/><path fill="#ffffff" d="M 22.378906 13.730469 C 22.378906 13.984375 22.355469 14.234375 22.304688 14.484375 C 22.253906 14.734375 22.183594 14.976562 22.085938 15.210938 C 21.988281 15.445312 21.867188 15.667969 21.726562 15.878906 C 21.585938 16.089844 21.425781 16.289062 21.246094 16.46875 C 21.066406 16.648438 20.871094 16.808594 20.660156 16.949219 C 20.449219 17.089844 20.222656 17.207031 19.988281 17.304688 C 19.753906 17.402344 19.511719 17.476562 19.261719 17.527344 C 19.015625 17.574219 18.761719 17.601562 18.507812 17.601562 C 18.253906 17.601562 18.003906 17.574219 17.753906 17.527344 C 17.503906 17.476562 17.261719 17.402344 17.027344 17.304688 C 16.792969 17.207031 16.570312 17.089844 16.355469 16.949219 C 16.144531 16.808594 15.949219 16.648438 15.769531 16.46875 C 15.589844 16.289062 15.429688 16.089844 15.289062 15.878906 C 15.148438 15.667969 15.027344 15.445312 14.929688 15.210938 C 14.835938 14.976562 14.761719 14.734375 14.710938 14.484375 C 14.660156 14.234375 14.636719 13.984375 14.636719 13.730469 C 14.636719 13.476562 14.660156 13.222656 14.710938 12.972656 C 14.761719 12.726562 14.835938 12.484375 14.929688 12.25 C 15.027344 12.011719 15.148438 11.789062 15.289062 11.578125 C 15.429688 11.367188 15.589844 11.171875 15.769531 10.992188 C 15.949219 10.8125 16.144531 10.652344 16.355469 10.511719 C 16.570312 10.371094 16.792969 10.25 17.027344 10.152344 C 17.261719 10.054688 17.503906 9.980469 17.753906 9.933594 C 18.003906 9.882812 18.253906 9.859375 18.507812 9.859375 C 18.761719 9.859375 19.015625 9.882812 19.261719 9.933594 C 19.511719 9.980469 19.753906 10.054688 19.988281 10.152344 C 20.222656 10.25 20.449219 10.371094 20.660156 10.511719 C 20.871094 10.652344 21.066406 10.8125 21.246094 10.992188 C 21.425781 11.171875 21.585938 11.367188 21.726562 11.578125 C 21.867188 11.789062 21.988281 12.011719 22.085938 12.25 C 22.183594 12.484375 22.253906 12.726562 22.304688 12.972656 C 22.355469 13.222656 22.378906 13.476562 22.378906 13.730469 Z M 22.378906 13.730469 " fill-opacity="1" fill-rule="nonzero"/><path fill="#ffffff" d="M 18.507812 27.21875 C 20.6875 27.21875 22.734375 26.667969 24.527344 25.703125 C 24.140625 22.773438 21.644531 20.421875 18.507812 20.421875 C 15.375 20.421875 12.875 22.773438 12.488281 25.703125 C 14.28125 26.667969 16.328125 27.21875 18.507812 27.21875 Z M 18.507812 27.21875 " fill-opacity="1" fill-rule="nonzero"/></svg>